HIERARCHY
ROOT SpineBase
{
  OFFSET 0.000000 0.000000 0.000000
  CHANNELS 6 Xposition Yposition Zposition Zrotation Xrotation Yrotation
  JOINT SpineMid
  {
    OFFSET 0.000000 28.624019 0.000000
    CHANNELS 3 Zrotation Xrotation Yrotation
    JOINT SpineShoulder
    {
      OFFSET -0.160920 21.412818 -0.572971
      CHANNELS 3 Zrotation Xrotation Yrotation
      JOINT Neck
      {
        OFFSET -0.110077 7.147657 -0.485323
        CHANNELS 3 Zrotation Xrotation Yrotation
        JOINT Head
        {
          OFFSET -2.441022 9.638507 6.343010
          CHANNELS 3 Zrotation Xrotation Yrotation
          End Site
          {
            OFFSET 0 0 0
          }
        }
      }
      JOINT ShoulderLeft
      {
        OFFSET -4.546725 -3.280186 -10.540491
        CHANNELS 3 Zrotation Xrotation Yrotation
        JOINT ElbowLeft
        {
          OFFSET -4.584094 -20.283131 6.453203
          CHANNELS 3 Zrotation Xrotation Yrotation
          JOINT WristLeft
          {
            OFFSET -3.682034 -19.325442 -1.179531
            CHANNELS 3 Zrotation Xrotation Yrotation
            JOINT HandLeft
            {
              OFFSET 0.952192 -2.834781 -0.136121
              CHANNELS 3 Zrotation Xrotation Yrotation
              JOINT HandTipLeft
              {
                OFFSET 0.118951 -2.243932 -0.993321
                CHANNELS 3 Zrotation Xrotation Yrotation
                End Site
                {
                  OFFSET 0 0 0
                }
              }
              JOINT ThumbLeft
              {
                OFFSET -3.278367 0.793470 -1.586453
                CHANNELS 3 Zrotation Xrotation Yrotation
                End Site
                {
                  OFFSET 0 0 0
                }
              }
            }
          }
        }
      }
      JOINT ShoulderRight
      {
        OFFSET 4.286967 -3.495250 -8.740979
        CHANNELS 3 Zrotation Xrotation Yrotation
        JOINT ElbowRight
        {
          OFFSET 0.396219 -21.630168 -7.246402
          CHANNELS 3 Zrotation Xrotation Yrotation
          JOINT WristRight
          {
            OFFSET -6.666856 -21.296088 -1.164752
            CHANNELS 3 Zrotation Xrotation Yrotation
            JOINT HandRight
            {
              OFFSET -0.835421 -8.027844 0.580225
              CHANNELS 3 Zrotation Xrotation Yrotation
              JOINT HandTipRight
              {
                OFFSET -2.922479 -6.386188 -0.654058
                CHANNELS 3 Zrotation Xrotation Yrotation
                End Site
                {
                  OFFSET 0 0 0
                }
              }
              JOINT ThumbRight
              {
                OFFSET 5.731102 0.182869 1.478396
                CHANNELS 3 Zrotation Xrotation Yrotation
                End Site
                {
                  OFFSET 0 0 0
                }
              }
            }
          }
        }
      }
    }
  }
  JOINT HipLeft
  {
    OFFSET -6.767101 0.832908 0.702005
    CHANNELS 3 Zrotation Xrotation Yrotation
    JOINT KneeLeft
    {
      OFFSET 20.773880 -24.984583 -6.282527
      CHANNELS 3 Zrotation Xrotation Yrotation
      JOINT AnkleLeft
      {
        OFFSET 6.530036 -45.670256 -2.204770
        CHANNELS 3 Zrotation Xrotation Yrotation
        JOINT FootLeft
        {
          OFFSET 1.830866 -1.866516 -11.671964
          CHANNELS 3 Zrotation Xrotation Yrotation
          End Site
          {
            OFFSET 0 0 0
          }
        }
      }
    }
  }
  JOINT HipRight
  {
    OFFSET 6.243888 1.612682 -6.985727
    CHANNELS 3 Zrotation Xrotation Yrotation
    JOINT KneeRight
    {
      OFFSET 2.500870 -34.973940 -1.603137
      CHANNELS 3 Zrotation Xrotation Yrotation
      JOINT AnkleRight
      {
        OFFSET 9.678673 -33.388347 -0.036082
        CHANNELS 3 Zrotation Xrotation Yrotation
        JOINT FootRight
        {
          OFFSET 1.849295 -1.883583 -11.685969
          CHANNELS 3 Zrotation Xrotation Yrotation
          End Site
          {
            OFFSET 0 0 0
          }
        }
      }
    }
  }
}
MOTION
Frames: 6
Frame Time: 0.033333
21.911674 71.688446 273.227747 -0.000000 0.000000 30.577334 -0.000000 0.000000 -30.577334 -0.000000 0.000000 0.000000 -0.000000 0.000000 0.000000 0.000000 0.000000 0.000000 -0.000000 0.000000 0.000000 -0.000000 0.000000 0.000000 -0.000000 0.000000 0.000000 -0.000000 0.000000 0.000000 0.000000 0.000000 0.000000 0.000000 0.000000 0.000000 -0.000000 0.000000 0.000000 -0.000000 0.000000 0.000000 -0.000000 0.000000 0.000000 -0.000000 0.000000 0.000000 0.000000 0.000000 0.000000 0.000000 0.000000 0.000000 -0.000000 0.000000 -30.577334 -0.000000 0.000000 0.000000 -0.000000 0.000000 0.000000 0.000000 0.000000 0.000000 -0.000000 0.000000 -30.577334 -0.000000 0.000000 0.000000 -0.000000 0.000000 0.000000 0.000000 0.000000 0.000000
21.958057 71.663079 273.139843 0.082515 0.095583 30.826533 -0.119838 -0.039795 -30.826643 -0.000000 0.000000 0.000000 -0.000000 0.000000 0.000000 0.000000 0.000000 0.000000 -0.000000 0.000000 0.000000 -0.000000 0.000000 0.000000 -0.020713 -3.111785 -1.046461 -11.654040 1.668090 6.687890 0.000000 0.000000 0.000000 0.000000 0.000000 0.000000 -0.000000 0.000000 0.000000 -0.000000 0.000000 0.000000 -0.000000 0.000000 0.000000 0.773915 -1.083808 0.425775 0.000000 0.000000 0.000000 0.000000 0.000000 0.000000 -0.119838 -0.039795 -30.826643 -0.000000 0.000000 0.000000 -0.000000 0.000000 0.000000 0.000000 0.000000 0.000000 -0.119838 -0.039795 -30.826643 -0.000000 0.000000 0.000000 -0.000000 0.000000 0.000000 0.000000 0.000000 0.000000
21.996248 71.641782 273.053937 0.153390 0.183533 31.073176 -0.226108 -0.078027 -31.073576 -0.000000 0.000000 0.000000 -0.000000 0.000000 0.000000 0.000000 0.000000 0.000000 -0.000000 0.000000 0.000000 0.697661 0.615985 -0.163832 -0.680583 -7.587741 -2.192989 -20.874911 1.961174 13.296867 0.000000 0.000000 0.000000 0.000000 0.000000 0.000000 -0.000000 0.000000 0.000000 1.191777 0.711733 -0.296265 -2.293717 -0.640071 0.179897 2.585525 -2.097612 0.896154 0.000000 0.000000 0.000000 0.000000 0.000000 0.000000 -0.226108 -0.078027 -31.073576 -1.000541 -0.063743 0.038682 1.000584 0.063058 -0.039789 0.000000 0.000000 0.000000 -0.226108 -0.078027 -31.073576 -0.000000 0.000000 0.000000 -0.000000 0.000000 0.000000 0.000000 0.000000 0.000000
22.026247 71.624554 272.970030 0.212693 0.263911 31.316821 -0.318878 -0.114908 -31.317631 -0.000000 0.000000 0.000000 0.197505 1.056837 0.134983 0.000000 0.000000 0.000000 -0.000000 0.000000 0.000000 0.884927 0.801222 -0.213080 -0.731990 -12.411748 -3.715926 -27.025844 1.703919 19.267236 0.000000 0.000000 0.000000 0.000000 0.000000 0.000000 -0.000000 0.000000 0.000000 1.699705 0.995959 -0.421296 -3.256549 -1.102749 0.258699 3.672779 -2.711195 1.230658 0.000000 0.000000 0.000000 0.000000 0.000000 0.000000 -0.318878 -0.114908 -31.317631 -1.450264 -0.085049 0.056885 1.592884 0.116320 -0.915522 0.000000 0.000000 0.000000 -0.318878 -0.114908 -31.317631 -0.000000 0.000000 0.000000 0.139219 0.046989 -0.814599 0.000000 0.000000 0.000000
22.048053 71.611395 272.888121 0.260480 0.336771 31.557039 -0.398209 -0.150644 -31.558328 -0.000000 0.000000 0.000000 0.259646 1.339199 0.163917 0.000000 0.000000 0.000000 -0.000000 0.000000 0.000000 0.976244 0.914927 -0.241979 -0.434652 -17.653813 -5.398104 -30.475463 1.446333 24.302235 0.000000 0.000000 0.000000 0.000000 0.000000 0.000000 -0.000000 0.000000 0.000000 2.148510 1.232939 -0.529429 -4.104113 -1.657986 0.331511 4.622408 -3.035683 1.475283 0.000000 0.000000 0.000000 0.000000 0.000000 0.000000 -0.398209 -0.150644 -31.558328 -1.864510 -0.099005 0.074428 2.032830 0.136520 -1.086223 0.000000 0.000000 0.000000 -1.068602 -0.660269 -31.605278 0.303926 0.785337 0.040123 0.164172 0.060636 -0.954598 0.000000 0.000000 0.000000
22.061667 71.602306 272.808210 0.296798 0.402161 31.793420 -0.464148 -0.185441 -31.795213 -0.000000 0.000000 0.000000 0.319944 1.585755 0.184835 0.000000 0.000000 0.000000 -0.000000 0.000000 0.000000 0.976377 0.961504 -0.251264 0.558960 -22.291840 -6.794522 -31.936204 0.992492 27.637842 0.000000 0.000000 0.000000 0.000000 0.000000 0.000000 -0.000000 0.000000 0.000000 2.537943 1.423051 -0.619742 -4.840578 -2.307777 0.399746 5.434494 -3.069619 1.622104 0.000000 0.000000 0.000000 0.000000 0.000000 0.000000 -0.464148 -0.185441 -31.795213 -2.242010 -0.105396 0.091376 2.425034 0.147345 -1.189292 0.000000 0.000000 0.000000 -1.277685 -0.821859 -31.855406 0.355195 0.969877 0.050036 0.178322 0.073435 -1.028659 0.000000 0.000000 0.000000
